<svg xmlns="http://www.w3.org/2000/svg" style="display: none;">
	<symbol id="loading" viewBox="0 0 24 24">
		<path class="opacity-75" fill="currentColor" d="M4 12a8 8 0 018-8V0C5.373 0 0 5.373 0 12h4zm2 5.291A7.962 7.962 0 014 12H0c0 3.042 1.135 5.824 3 7.938l3-2.647z">
		</path>
	</symbol>
	<symbol id="leek" viewBox="0 0 512.002 512.002">
		<path d="M350.755 246.298 311.331 25.489a4.687 4.687 0 0 0-.157-.634l-41.888 25.421c-2.069 1.256-4.093 5.44-3.503 8.751.074.41.11.825.109 1.242l-.09 46.044 84.953 139.985zM265.369 266.302l-131.046-100.96-33.671 20.436c.125.127.285.273.488.429l211.518 162.958 1.154-3.041-48.443-79.822zM171.975 112.404 78.879 40.935c-2.674-2.062-7.318-2.199-9.386-.941L27.605 65.412c.126.129.287.274.491.432l217.148 167.294-73.269-120.734zM476.569 430.273a53.511 53.511 0 0 0-12.946-14.546 7.526 7.526 0 0 1-.256-.21c-4.368-3.381-47.086-36.87-68.433-69.465-.043-.067-.088-.134-.129-.203l-40.56-66.834-24.935 65.69 18.135 29.885c.041.069.083.138.122.207 19.064 33.995 29.05 87.372 30.028 92.78.024.106.046.213.066.32a53.579 53.579 0 0 0 6.924 18.198c7.456 12.284 19.249 20.931 33.207 24.346 13.957 3.412 28.409 1.189 40.695-6.265 12.285-7.456 20.933-19.249 24.347-33.207 3.415-13.959 1.191-28.412-6.265-40.696zM185.841 1.513A3.148 3.148 0 0 0 181.52.457l-41.983 25.479a3.148 3.148 0 0 0-1.056 4.317l181.628 299.285 24.935-65.69L185.841 1.513z" />
	</symbol>
	<symbol id="close" viewBox="0 0 24 24">
		<path d="m23 20.168-8.185-8.187L23 3.807 20.168 1l-8.182 8.179L3.81 1 1 3.81l8.186 8.196L1 20.19 3.81 23l8.203-8.192L20.193 23z" />
	</symbol>
</svg>
